<?xml version="1.0" encoding="UTF-8"?>
<svg xmlns="http://www.w3.org/2000/svg" viewBox="0 0 436.2 266.65">
  <defs>
    <style>
      .cls-1, .cls-2 {
        fill: #fff;
      }

      .cls-1, .cls-3, .cls-4, .cls-5, .cls-6, .cls-7 {
        stroke: #1f74c2;
      }

      .cls-1, .cls-8, .cls-9 {
        stroke-miterlimit: 10;
      }

      .cls-10 {
        fill: #a84333;
      }

      .cls-11 {
        fill: #7298e2;
      }

      .cls-3 {
        stroke-dasharray: 0 0 2.8 2.8;
      }

      .cls-3, .cls-4, .cls-12, .cls-8, .cls-13, .cls-5, .cls-14, .cls-6, .cls-15, .cls-7, .cls-9 {
        fill: none;
      }

      .cls-3, .cls-4, .cls-12, .cls-13, .cls-5, .cls-14, .cls-6, .cls-15, .cls-7 {
        stroke-linecap: round;
        stroke-linejoin: round;
      }

      .cls-3, .cls-4, .cls-12, .cls-5, .cls-6, .cls-7 {
        stroke-width: .57px;
      }

      .cls-16 {
        isolation: isolate;
      }

      .cls-17 {
        fill: #bcbec0;
      }

      .cls-17, .cls-18 {
        mix-blend-mode: multiply;
      }

      .cls-19 {
        fill: #0a3759;
      }

      .cls-12 {
        stroke: #fbb040;
      }

      .cls-8 {
        stroke-dasharray: 0 0 4.78 4.78;
      }

      .cls-8, .cls-9 {
        stroke: #b57324;
      }

      .cls-20 {
        fill: #171c27;
      }

      .cls-13 {
        stroke: #244e80;
        stroke-width: .85px;
      }

      .cls-5 {
        stroke-dasharray: 0 0 2.53 2.53;
      }

      .cls-21, .cls-22 {
        fill: #1f74c2;
      }

      .cls-23 {
        fill: #fbb040;
      }

      .cls-24 {
        fill: #244e80;
      }

      .cls-25 {
        fill: #b2752d;
      }

      .cls-14 {
        stroke: #3078a5;
      }

      .cls-14, .cls-15 {
        stroke-width: .28px;
      }

      .cls-26 {
        fill: #98c4e5;
      }

      .cls-27 {
        fill: #d7eff9;
      }

      .cls-6 {
        stroke-dasharray: 0 0 2.94 2.94;
      }

      .cls-15 {
        stroke: #9b3c26;
      }

      .cls-28 {
        fill: #eeb399;
      }

      .cls-7 {
        stroke-dasharray: 0 2.83;
      }

      .cls-29 {
        fill: #b57324;
      }

      .cls-18 {
        fill: #a7a9ac;
      }

      .cls-22 {
        font-family: Courier, Courier;
        font-size: 5px;
      }

      .cls-30 {
        fill: #dd9637;
      }

      .cls-31 {
        fill: #e06546;
      }

      .cls-32 {
        fill: #e06645;
      }
    </style>
  </defs>
  <g class="cls-16">
    <g id="Layer_2" data-name="Layer 2">
      <g id="Objects">
        <g>
          <g>
            <rect class="cls-26" x="40.33" width="368" height="216.75"/>
            <g>
              <rect class="cls-21" x="261.78" y="9.12" width="136.31" height="136.31"/>
              <path class="cls-27" d="m398.09,145.42v-73.98c-1.12-.74-2.33-1.29-3.67-1.39-1.89-.14-3.72.64-5.45,1.42-16.53,7.42-32.5,16.1-47.72,25.93-11.31-8.49-23.06-16.39-35.19-23.66-2.49-1.49-5.14-3-8.04-3.01-3.05-.01-5.84,1.63-8.4,3.28-9.99,6.45-19.32,13.91-27.84,22.21v49.19h136.31Z"/>
              <circle class="cls-27" cx="363.45" cy="34.29" r="19"/>
            </g>
            <g>
              <g>
                <rect class="cls-27" x="155.88" y="9.12" width="95.84" height="95.84"/>
                <rect class="cls-7" x="162.73" y="15.97" width="82.13" height="82.13"/>
                <g>
                  <polyline class="cls-4" points="243.44 98.1 244.86 98.1 244.86 96.68"/>
                  <line class="cls-5" x1="244.86" y1="94.16" x2="244.86" y2="75.19"/>
                  <path class="cls-4" d="m244.86,73.93v-1.42c-.25-.16-.49-.32-.74-.47-.15-.09-.31-.19-.46-.28"/>
                  <path class="cls-3" d="m241.25,70.33c-3.6-2.06-7.35-3.85-11.36-4.86-5.09-1.28-10.66-1.22-15.38,1.08-2.25,1.1-4.39,2.71-6.89,2.78-2.38.06-4.52-1.3-6.5-2.62-3.43-2.27-6.85-4.54-10.28-6.81-2.92-1.93-5.99-3.92-9.47-4.26-5.8-.56-10.94,3.54-15.03,7.69-1.24,1.26-2.43,2.56-3.6,3.88v28.08"/>
                  <polyline class="cls-4" points="162.73 96.68 162.73 98.1 164.15 98.1"/>
                  <line class="cls-6" x1="167.09" y1="98.1" x2="241.98" y2="98.1"/>
                </g>
                <circle class="cls-7" cx="226.54" cy="33.48" r="10.07"/>
              </g>
              <polygon class="cls-21" points="217.21 57.78 203.8 44.37 190.39 57.78 196.6 57.78 196.6 70.55 210.99 70.55 210.99 57.78 217.21 57.78"/>
            </g>
            <g>
              <g>
                <rect class="cls-27" x="155.88" y="112.24" width="95.84" height="95.84"/>
                <rect class="cls-7" x="162.73" y="119.1" width="82.13" height="82.13"/>
                <g>
                  <polyline class="cls-4" points="243.44 201.22 244.86 201.22 244.86 199.81"/>
                  <line class="cls-5" x1="244.86" y1="197.28" x2="244.86" y2="178.31"/>
                  <path class="cls-4" d="m244.86,177.05v-1.42c-.25-.16-.49-.32-.74-.47-.15-.09-.31-.19-.46-.28"/>
                  <path class="cls-3" d="m241.25,173.45c-3.6-2.06-7.35-3.85-11.36-4.86-5.09-1.28-10.66-1.22-15.38,1.08-2.25,1.1-4.39,2.71-6.89,2.78-2.38.06-4.52-1.3-6.5-2.62-3.43-2.27-6.85-4.54-10.28-6.81-2.92-1.93-5.99-3.92-9.47-4.26-5.8-.56-10.94,3.54-15.03,7.69-1.24,1.26-2.43,2.56-3.6,3.88v28.08"/>
                  <polyline class="cls-4" points="162.73 199.81 162.73 201.22 164.15 201.22"/>
                  <line class="cls-6" x1="167.09" y1="201.22" x2="241.98" y2="201.22"/>
                </g>
                <circle class="cls-7" cx="226.54" cy="136.6" r="10.07" transform="translate(55.31 338.25) rotate(-80.75)"/>
              </g>
              <polygon class="cls-21" points="217.21 161.97 203.8 148.57 190.39 161.97 196.6 161.97 196.6 174.75 210.99 174.75 210.99 161.97 217.21 161.97"/>
            </g>
            <g>
              <g>
                <rect class="cls-27" x="52.4" y="9.12" width="95.84" height="95.84"/>
                <rect class="cls-7" x="59.26" y="15.97" width="82.13" height="82.13"/>
                <g>
                  <polyline class="cls-4" points="139.97 98.1 141.38 98.1 141.38 96.68"/>
                  <line class="cls-5" x1="141.38" y1="94.16" x2="141.38" y2="75.19"/>
                  <path class="cls-4" d="m141.38,73.93v-1.42c-.25-.16-.49-.32-.74-.47-.15-.09-.31-.19-.46-.28"/>
                  <path class="cls-3" d="m137.77,70.33c-3.6-2.06-7.35-3.85-11.36-4.86-5.09-1.28-10.66-1.22-15.38,1.08-2.25,1.1-4.39,2.71-6.89,2.78-2.38.06-4.52-1.3-6.5-2.62-3.43-2.27-6.85-4.54-10.28-6.81-2.92-1.93-5.99-3.92-9.47-4.26-5.8-.56-10.94,3.54-15.03,7.69-1.24,1.26-2.43,2.56-3.6,3.88v28.08"/>
                  <polyline class="cls-4" points="59.26 96.68 59.26 98.1 60.67 98.1"/>
                  <line class="cls-6" x1="63.61" y1="98.1" x2="138.5" y2="98.1"/>
                </g>
                <circle class="cls-7" cx="123.07" cy="33.48" r="10.07"/>
              </g>
              <polygon class="cls-21" points="113.73 57.78 100.32 44.37 86.91 57.78 93.13 57.78 93.13 70.55 107.51 70.55 107.51 57.78 113.73 57.78"/>
            </g>
            <g>
              <g>
                <rect class="cls-27" x="52.4" y="112.24" width="95.84" height="95.84"/>
                <rect class="cls-7" x="59.26" y="119.1" width="82.13" height="82.13"/>
                <g>
                  <polyline class="cls-4" points="139.97 201.22 141.38 201.22 141.38 199.81"/>
                  <line class="cls-5" x1="141.38" y1="197.28" x2="141.38" y2="178.31"/>
                  <path class="cls-4" d="m141.38,177.05v-1.42c-.25-.16-.49-.32-.74-.47-.15-.09-.31-.19-.46-.28"/>
                  <path class="cls-3" d="m137.77,173.45c-3.6-2.06-7.35-3.85-11.36-4.86-5.09-1.28-10.66-1.22-15.38,1.08-2.25,1.1-4.39,2.71-6.89,2.78-2.38.06-4.52-1.3-6.5-2.62-3.43-2.27-6.85-4.54-10.28-6.81-2.92-1.93-5.99-3.92-9.47-4.26-5.8-.56-10.94,3.54-15.03,7.69-1.24,1.26-2.43,2.56-3.6,3.88v28.08"/>
                  <polyline class="cls-4" points="59.26 199.81 59.26 201.22 60.67 201.22"/>
                  <line class="cls-6" x1="63.61" y1="201.22" x2="138.5" y2="201.22"/>
                </g>
                <circle class="cls-7" cx="123.07" cy="136.6" r="10.07" transform="translate(-38.25 224.83) rotate(-76.66)"/>
              </g>
              <polygon class="cls-21" points="113.73 161.97 100.32 148.57 86.91 161.97 93.13 161.97 93.13 174.75 107.51 174.75 107.51 161.97 113.73 161.97"/>
            </g>
            <g>
              <path class="cls-27" d="m395.32,155.56h-130.78c-1.52,0-2.76-1.24-2.76-2.76h0c0-1.52,1.24-2.76,2.76-2.76h130.78c1.52,0,2.76,1.24,2.76,2.76h0c0,1.52-1.24,2.76-2.76,2.76Z"/>
              <rect class="cls-21" x="264.17" y="152.05" width="90.19" height="1.48" rx=".5" ry=".5"/>
            </g>
            <text class="cls-22" transform="translate(318.23 161.66)"><tspan x="0" y="0">LOADING 60%</tspan></text>
            <g>
              <g>
                <circle class="cls-27" cx="277.21" cy="187.68" r="15.43" transform="translate(31.21 414.74) rotate(-76.81)"/>
                <circle class="cls-7" cx="277.21" cy="187.68" r="15.43" transform="translate(31.21 414.74) rotate(-76.81)"/>
                <g>
                  <path class="cls-23" d="m292.64,176.09c0,2.84-2.3,5.15-5.15,5.15s-5.15-2.3-5.15-5.15,2.3-5.15,5.15-5.15,5.15,2.3,5.15,5.15Z"/>
                  <path class="cls-2" d="m290.77,175.27h-2.45v-2.45c0-.27-.23-.5-.5-.5h-.64c-.27,0-.5.23-.5.5v2.45h-2.45c-.27,0-.5.23-.5.5v.64c0,.27.22.5.5.5h2.45v2.45c0,.27.23.5.5.5h.64c.27,0,.5-.23.5-.5v-2.45h2.45c.27,0,.5-.23.5-.5v-.64c0-.27-.23-.5-.5-.5Z"/>
                </g>
              </g>
              <g>
                <circle class="cls-27" cx="382.66" cy="187.68" r="15.43" transform="translate(-20.63 325.55) rotate(-45)"/>
                <circle class="cls-7" cx="382.66" cy="187.68" r="15.43" transform="translate(-20.63 325.55) rotate(-45)"/>
                <g>
                  <path class="cls-23" d="m398.09,176.09c0,2.84-2.3,5.15-5.15,5.15s-5.15-2.3-5.15-5.15,2.3-5.15,5.15-5.15,5.15,2.3,5.15,5.15Z"/>
                  <path class="cls-2" d="m396.21,175.27h-2.45v-2.45c0-.27-.22-.5-.5-.5h-.64c-.27,0-.5.23-.5.5v2.45h-2.45c-.27,0-.5.23-.5.5v.64c0,.27.22.5.5.5h2.45v2.45c0,.27.22.5.5.5h.64c.27,0,.5-.23.5-.5v-2.45h2.45c.27,0,.5-.23.5-.5v-.64c0-.27-.22-.5-.5-.5Z"/>
                </g>
              </g>
              <g>
                <circle class="cls-27" cx="329.94" cy="187.68" r="15.43" transform="translate(71.9 466.07) rotate(-76.81)"/>
                <circle class="cls-7" cx="329.94" cy="187.68" r="15.43" transform="translate(71.9 466.07) rotate(-76.81)"/>
                <g>
                  <path class="cls-23" d="m345.37,176.09c0,2.84-2.3,5.15-5.15,5.15s-5.15-2.3-5.15-5.15,2.3-5.15,5.15-5.15,5.15,2.3,5.15,5.15Z"/>
                  <path class="cls-2" d="m343.49,175.27h-2.45v-2.45c0-.27-.22-.5-.5-.5h-.64c-.27,0-.5.23-.5.5v2.45h-2.45c-.27,0-.5.23-.5.5v.64c0,.27.22.5.5.5h2.45v2.45c0,.27.23.5.5.5h.64c.27,0,.5-.23.5-.5v-2.45h2.45c.27,0,.5-.23.5-.5v-.64c0-.27-.22-.5-.5-.5Z"/>
                </g>
              </g>
            </g>
          </g>
          <g>
            <path class="cls-24" d="m16.53,228.21c-2.88-.9-5.67-2.1-8.3-3.59-2.08-1.18-4.11-2.58-5.5-4.53-1.39-1.95-2.06-4.54-1.25-6.8,1.62-4.45,6.24-4.52,10.14-5.08,4.64-.67,9.41-.06,13.65,1.98-3.08-2.01-5.77-4.59-7.91-7.58-.87-1.22-1.68-2.76-1.1-4.15.48-1.15,1.82-1.76,3.07-1.73,1.25.03,2.42.58,3.53,1.16,1.05.56,2.28,1.56,3.33,1.7-3.82-4.26-9.09-7.63-13.2-11.73-3.84-3.84-7.5-7.96-9.95-12.8-2.75-5.44-5.12-15.03-.05-19.79,4.78-4.49,12.85-3.97,18.07-.56,3.91,2.55,6.86,6.32,9.46,10.19,6.47,9.65,11.19,20.34,15.88,30.97.93-2.1,2.29-4.53,4.59-4.66,1.38-.08,2.67.77,3.49,1.88s1.26,2.44,1.68,3.75c.59-2.98,1.9-6.5,4.89-7.01,2.73-.47,5.13,2.01,6.15,4.58,1.92,4.87.78,10.56-1.9,15.06-3.72,6.23-10.15,10.57-15.92,14.75-1.82,1.32-3.67,2.6-5.73,3.5-1.3.56-2.66.97-4.03,1.3-7.57,1.83-15.64,1.51-23.07-.81Z"/>
            <path class="cls-12" d="m9.17,158.44s30.26,28.77,38.95,62.17"/>
            <path class="cls-12" d="m62.95,194.34s-4.63,15.09-15.64,23.39"/>
            <path class="cls-12" d="m3.88,214.48s28.69,9.3,42.23-.45"/>
            <path class="cls-12" d="m20.33,200.73s14.97,9.66,23.39,7.07"/>
            <path class="cls-12" d="m8.3,173.12s16.17,19.29,25.74,15.99"/>
            <path class="cls-12" d="m21.1,160.37c.24.35,6.31,12.15,5.16,17.62"/>
            <path class="cls-12" d="m51.08,196s-.97,11.01-5.99,15.21"/>
            <path class="cls-12" d="m36.36,217.85s-7.39,5.66-14.32,6.69"/>
            <path class="cls-12" d="m35.29,207.51s-1.95,3.13-6.26,3.93"/>
          </g>
          <g>
            <path class="cls-23" d="m84.39,201.31c.55-4.13-.54-9.55-4.64-10.28-3.98-.71-6.83,3.63-8.51,7.31,4.24-10.82,5.27-22.86,2.94-34.24-.58-2.82-1.89-6.11-4.73-6.57-2.87-.47-5.17,2.29-6.56,4.84-4.16,7.61-6.31,16.31-6.16,24.98.54-3.43-2.15-7.04-5.59-7.5-.45.91-.89,1.81-1.34,2.72,1.19-6.73,1.37-13.63.52-20.41-.41-3.25-1.07-6.54-2.76-9.35-1.68-2.81-4.55-5.07-7.81-5.3-3.25-.23-6.4,1.61-8.45,4.16-2.04,2.54-3.14,5.71-3.94,8.87-3.39,13.39-2,27.95,3.88,40.45-3.5-1.79-8.04.53-9.79,4.05-1.74,3.52-1.3,7.74-.2,11.51,2.65,9.07,9.16,17.11,17.83,20.84,23.97,10.32,42.48-14.9,45.29-36.08Z"/>
            <path class="cls-13" d="m38.72,153.33s-9.15,42.76,17.01,78.98"/>
            <path class="cls-13" d="m69.16,162.05s.84,39.75-19.39,60.84"/>
            <path class="cls-13" d="m79.64,196.91s-10.05,25.11-25.89,32.52"/>
            <path class="cls-13" d="m25.97,208.01s6.94,18.39,25.74,18.23"/>
            <path class="cls-13" d="m44.64,212.04s5.68-9.89,6.58-20.92"/>
            <path class="cls-13" d="m37.87,185.28s-6.46-1.34-7.6-13.83"/>
            <path class="cls-13" d="m65.04,193.49s-3.45-8.96-2.7-17.03"/>
            <path class="cls-13" d="m70.39,213.8s-2.09-2.41-2.29-10.76"/>
            <path class="cls-13" d="m42.7,224.73s.53,4.75-6.62,3.99"/>
          </g>
          <g>
            <g>
              <rect class="cls-1" x="130.16" y="60.54" width="61.98" height="61.98" transform="translate(318.34 189.71) rotate(-177.61)"/>
              <rect class="cls-21" x="133.69" y="64.24" width="55.47" height="41.35" transform="translate(319.17 176.5) rotate(-177.61)"/>
              <path class="cls-2" d="m135.44,102.64l.62-14.92,8.59-7.9c1.17-1.08,2.99-1,4.07.17l13.06,14.2c1.03,1.12,2.78,1.2,3.9.16l7.9-7.27c1.07-.98,2.73-.91,3.71.15l8.87,9.64-.33,7.88-50.39-2.11Z"/>
              <path class="cls-2" d="m176.88,73.86c-.09,2.27,1.67,4.18,3.93,4.27,2.27.09,4.18-1.67,4.27-3.93.09-2.27-1.67-4.18-3.93-4.27-2.27-.09-4.18,1.67-4.27,3.93Z"/>
            </g>
            <polygon class="cls-17" points="188.58 102.45 155.26 112.4 154.09 104.75 188.58 102.45"/>
            <path class="cls-20" d="m101.14,262.36v3.7s19.26,1.14,26.98.25l-3.29-3.95s-21.32-.66-23.69,0Z"/>
            <path class="cls-20" d="m132.87,261.6s-.62,3.07,0,4.34c0,0,17.7.82,27.32,0l-4.37-4.34h-22.95Z"/>
            <g>
              <polygon class="cls-28" points="120.59 46.83 121.32 60.77 128.04 66.28 134.08 62.15 133.65 53.77 120.59 46.83"/>
              <rect class="cls-28" x="120.35" y="25.06" width="23.7" height="33.88" rx="9.46" ry="9.46" transform="translate(266.41 77.06) rotate(177.02)"/>
              <path class="cls-20" d="m132.3,52.5c1.71-1.96,2.39-4.57,3.02-7.1.1-.41.2-.84.1-1.26-.11-.41-.4-.73-.66-1.05-.64-.79-1.18-1.72-1.2-2.74-.02-1.02.61-2.1,1.6-2.31,1.17-.25,2.3.78,2.59,1.94.3,1.16-.01,2.37-.32,3.52,1.18.51,2.4-.86,2.51-2.15.11-1.28-.38-2.57-.25-3.85.21-2.08,1.95-3.6,3.2-5.27s1.92-4.34.28-5.64c-.68-.54-1.58-.68-2.34-1.08-1.29-.68-2.08-2.05-3.31-2.84-.86-.55-1.89-.78-2.9-.93-6.09-.91-13.08,1.27-15.97,6.71-2.17,4.11-1.62,9.06-1.01,13.66.51,3.85.46,10.01,4.34,12.06,3.29,1.74,7.84,1.18,10.33-1.68Z"/>
            </g>
            <path class="cls-19" d="m155.43,124.63l.39,136.96s-14.9,1.71-22.95,0l-2.4-116.95-5.65,117.72s-14.44.93-23.69,0l9.63-133.82,44.66-3.91Z"/>
            <path class="cls-32" d="m154.71,73.92c.18.83.33,1.67.45,2.51.37,2.59.76,5.13,1.01,7.74.55,5.87,1,11.74,1.24,17.63.28,6.83.26,13.67-.24,20.48-.46,6.27-2.99,7.86-8.9,9.89-5.1,1.75-10.63,2.37-16,2.59-4.5.18-19.54.07-21.52-6.21-.64-2.04,1.58-6.7,1.95-8.89.51-3,.78-6.04.82-9.08.07-5.88-.73-11.77-2.42-17.41-2.38-7.94-7.03-15.22-3-23.23,4.1-8.15,13.61-10.55,22.06-10.66,4.37-.06,8.82.28,12.99,1.64,2.08.68,3.85,1.51,5.47,2.98,1.65,1.49,3.2,3.15,4.29,5.1.86,1.53,1.41,3.2,1.79,4.91Z"/>
            <path class="cls-10" d="m157.23,98.13l-8.37-15.89s-6.95-4.89-10.33-3.18l13.55,28.98s1.24,2.34,5.49,1.91c0-2.72-.05-5.44-.16-8.15-.05-1.22-.11-2.44-.18-3.67Z"/>
            <path class="cls-11" d="m102.71,97.03l.05-.11c-.06.03-.05.11-.05.11Z"/>
            <path class="cls-14" d="m116.9,137.81s10.13,11.02,28.31,6.06"/>
            <path class="cls-28" d="m184.07,86.94l-20.79,4.04-12.15-23.44c-2.04-3.94-6.88-5.48-10.82-3.44-3.94,2.04-5.47,6.88-3.44,10.82l14.91,28.78c.84,1.62,2.17,2.86,3.74,3.59,1.5.7,3.21.93,4.92.6l26.69-5.19c2.19-6.92-3.06-15.76-3.06-15.76Z"/>
            <path class="cls-28" d="m192.41,85.37c.69-.06,1.41-.1,2.03.2.62.3,1.08,1.04.83,1.68-.39.98-1.85.85-2.69,1.49-.63.48-.81,1.37-.72,2.15.09.79.41,1.53.61,2.29.97,3.67-1.14,7.9-4.66,9.33-.66.27-1.42.44-2.08.17-.84-.34-1.25-1.27-1.58-2.11-.89-2.26-1.79-4.54-2.15-6.94-.32-2.16-.56-5.81,1.82-6.73,2.59-1,5.83-1.31,8.58-1.54Z"/>
            <path class="cls-20" d="m129.08,53.45c.5,1,.42,2.26-.2,3.19-.61.91-1.74,1.73-1.48,2.79.2.8,1.13,1.21,1.5,1.95.39.78.07,1.74-.38,2.49-.45.75-1.04,1.45-1.23,2.3-.51,2.28,2.01,4.76.81,6.77-.39.64-1.1,1.07-1.38,1.77-.66,1.61,1.32,3.13,1.41,4.86.11,2.22-2.87,3.95-2.23,6.08.28.94,1.24,1.62,1.34,2.6.13,1.39-1.56,2.49-1.36,3.88.14.97,1.16,1.95.58,2.74-.24.31-.65.42-1.04.5-.67.14-1.37.26-2.03.09-.66-.17-1.28-.72-1.31-1.4-.05-1.18,1.56-2.15,1.11-3.25-.19-.47-.69-.71-1.06-1.06-.85-.82-.83-2.36.05-3.15.31-.28.7-.47.98-.77.85-.92.37-2.41-.23-3.5-.61-1.1-1.33-2.37-.83-3.52.38-.89,1.39-1.38,1.83-2.25,1.14-2.25-2.21-4.97-1.05-7.21.38-.74,1.19-1.2,1.51-1.97.89-2.12-2.47-4.52-1.26-6.47.27-.43.73-.74.92-1.21.45-1.17-1-2.1-1.75-3.1-.83-1.11-.8-2.79.08-3.87,1.55-1.89,5.61-1.49,6.71.71Z"/>
            <path class="cls-20" d="m126.32,97.01c.13,1.27-.04,2.6-.71,3.68-.67,1.08-1.92,1.85-3.19,1.75-.14-.01-.29-.04-.38-.15-.15-.17-.06-.45.11-.6.17-.15.39-.23.58-.36.53-.36.68-1.1.57-1.73-.11-.63-.44-1.2-.69-1.79-.26-.59-.45-1.25-.27-1.87.31-1.12,1.43-1.34,2.43-1.15,1.04.19,1.45,1.27,1.55,2.21Z"/>
            <path class="cls-31" d="m125.79,95.82c-.2.1-.42.13-.63.15-.49.05-.98.07-1.47.06-.27,0-.55-.02-.8-.14s-.44-.37-.43-.64c.02-.25.21-.46.44-.57.23-.1.49-.12.74-.14.59-.03,1.62-.24,2.16.05.49.26.49.97-.02,1.22Z"/>
            <path class="cls-32" d="m151.27,67.02c-2.14-4.13-7.22-5.75-11.36-3.61-4.13,2.14-5.74,7.22-3.6,11.35l9.89,19.1c3.06-.64,8.84-2.5,14.94-7.78l-9.88-19.07Z"/>
            <path class="cls-15" d="m136.58,75.28l9.63,18.58s6.76-1.01,14.94-7.78"/>
          </g>
          <g>
            <polygon class="cls-18" points="342.13 191.22 346.9 216.75 348.58 191.03 342.13 191.22"/>
            <g>
              <polygon class="cls-29" points="346.9 177.91 342.13 191.22 350.12 191.22 346.9 177.91"/>
              <rect class="cls-25" x="355.56" y="171.62" width="72.26" height="71.18"/>
              <polygon class="cls-30" points="355.56 242.9 346.9 250.17 346.9 177.91 355.56 171.62 355.56 242.9"/>
              <g>
                <rect class="cls-1" x="358.2" y="159.74" width="66.98" height="66.98" transform="translate(783.43 386.38) rotate(179.99)"/>
                <rect class="cls-21" x="361.72" y="163.74" width="59.95" height="44.68" transform="translate(783.42 372.07) rotate(179.99)"/>
                <path class="cls-2" d="m364.44,206.4v-16.14s8.92-8.93,8.92-8.93c1.21-1.21,3.18-1.22,4.4,0l14.74,14.74c1.17,1.17,3.06,1.16,4.22,0l8.2-8.21c1.11-1.11,2.91-1.11,4.02,0l10.01,10.01v8.52s-54.51.01-54.51.01Z"/>
                <path class="cls-2" d="m407.87,173.44c0,2.45,1.99,4.44,4.44,4.44,2.45,0,4.44-1.99,4.44-4.44,0-2.45-1.99-4.44-4.44-4.44-2.45,0-4.44,1.99-4.44,4.44Z"/>
              </g>
              <g>
                <rect class="cls-1" x="353.67" y="156.07" width="66.98" height="66.98" transform="translate(774.36 379.03) rotate(179.99)"/>
                <rect class="cls-21" x="357.18" y="160.06" width="59.95" height="44.68" transform="translate(774.36 364.72) rotate(179.99)"/>
                <path class="cls-2" d="m359.91,202.73v-16.14s8.92-8.93,8.92-8.93c1.21-1.21,3.18-1.22,4.4,0l14.74,14.74c1.17,1.17,3.06,1.16,4.22,0l8.2-8.21c1.11-1.11,2.91-1.11,4.02,0l10.01,10.01v8.52s-54.51.01-54.51.01Z"/>
                <path class="cls-2" d="m403.34,169.77c0,2.45,1.99,4.44,4.44,4.44,2.45,0,4.44-1.99,4.44-4.44,0-2.45-1.99-4.44-4.44-4.44-2.45,0-4.44,1.99-4.44,4.44Z"/>
              </g>
              <g>
                <rect class="cls-1" x="349.54" y="159.74" width="66.98" height="66.98" transform="translate(757.67 402.29) rotate(-177.61)"/>
                <rect class="cls-21" x="353.36" y="163.74" width="59.95" height="44.68" transform="translate(758.57 388.01) rotate(-177.61)"/>
                <path class="cls-2" d="m355.25,205.25l.67-16.13,9.29-8.54c1.26-1.16,3.23-1.08,4.39.18l14.11,15.34c1.12,1.21,3,1.29,4.22.18l8.54-7.86c1.15-1.06,2.95-.99,4.01.17l9.58,10.42-.36,8.51-54.46-2.28Z"/>
                <path class="cls-2" d="m400.03,174.14c-.1,2.45,1.8,4.52,4.25,4.62,2.45.1,4.52-1.8,4.62-4.25s-1.8-4.52-4.25-4.62-4.52,1.8-4.62,4.25Z"/>
              </g>
              <polygon class="cls-30" points="427.82 242.9 419.17 250.17 419.17 177.91 427.82 171.62 427.82 242.9"/>
              <rect class="cls-23" x="346.9" y="177.91" width="72.26" height="72.26"/>
              <g>
                <polygon class="cls-29" points="392.33 231.38 383.33 222.39 374.34 231.38 378.51 231.38 378.51 239.95 388.16 239.95 388.16 231.38 392.33 231.38"/>
                <g>
                  <g>
                    <polyline class="cls-9" points="368.55 214.46 368.55 217.29 371.39 217.29"/>
                    <line class="cls-8" x1="376.17" y1="217.29" x2="392.89" y2="217.29"/>
                    <polyline class="cls-9" points="395.28 217.29 398.11 217.29 398.11 214.46"/>
                    <line class="cls-8" x1="398.11" y1="209.68" x2="398.11" y2="192.96"/>
                    <polyline class="cls-9" points="398.11 190.57 398.11 187.73 395.28 187.73"/>
                    <line class="cls-8" x1="390.5" y1="187.73" x2="373.78" y2="187.73"/>
                    <polyline class="cls-9" points="371.39 187.73 368.55 187.73 368.55 190.57"/>
                    <line class="cls-8" x1="368.55" y1="195.35" x2="368.55" y2="212.07"/>
                  </g>
                  <path class="cls-29" d="m390.91,200.79c-.42,0-.82.06-1.21.18-.7-2.93-3.33-5.12-6.48-5.12s-5.75,2.16-6.47,5.06c-.32-.08-.66-.12-1.01-.12-2.29,0-4.15,1.86-4.15,4.15s1.86,4.15,4.15,4.15h6.46c.33.05.67.08,1.02.08s.68-.03,1.02-.08h6.67c2.29,0,4.15-1.86,4.15-4.15s-1.86-4.15-4.15-4.15Z"/>
                </g>
              </g>
              <polygon class="cls-29" points="419.17 177.91 427.04 192.04 436.2 184.97 427.82 171.62 419.17 177.91"/>
            </g>
          </g>
        </g>
      </g>
    </g>
  </g>
</svg>